<svg width="425" height="425" viewBox="0 0 425 425" fill="none" xmlns="http://www.w3.org/2000/svg">
<path d="M80.1152 72.9158C56.899 98.9326 53.696 135.761 70.1082 164.58C70.5075 156.173 71.7081 147.768 74.9107 139.362C89.7232 98.5351 135.354 77.7199 176.181 92.5288C194.596 99.3332 208.603 112.143 217.809 127.754C218.611 105.339 209.804 82.9235 191.792 66.9109C159.368 37.6912 109.335 40.4946 80.1144 72.9167L80.1152 72.9158Z" fill="white"/>
<path d="M293.464 42.4924C261.042 29.2831 225.417 39.2898 203.802 64.5085C211.807 61.7052 220.214 60.5045 229.02 60.5045C272.65 60.5045 307.875 96.1294 307.875 139.76C307.875 159.374 300.672 176.985 288.662 190.996C309.877 183.792 327.889 168.178 337.098 145.763C353.507 104.94 333.892 58.9027 293.465 42.4912L293.464 42.4924Z" fill="white"/>
<path d="M105.333 313.883C70.9088 287.065 64.5036 237.43 91.3216 203.006C103.331 187.395 119.743 177.788 137.352 174.186C116.14 166.982 92.1229 168.585 71.3077 180.594C33.6806 202.61 21.2727 251.042 43.2888 288.669C60.9018 318.69 95.3259 332.702 127.748 325.894C119.743 323.493 112.137 319.492 105.333 313.885V313.883Z" fill="white"/>
<path d="M275.852 334.298C239.828 359.114 190.592 350.307 165.775 314.683C154.567 298.674 150.164 279.86 152.166 261.845C138.957 279.857 133.353 303.074 138.557 326.69C148.564 369.118 190.993 395.538 233.424 385.93C267.449 377.925 291.065 349.504 294.267 316.683C289.063 323.09 283.059 329.093 275.853 334.298L275.852 334.298Z" fill="white"/>
<path d="M344.7 156.974C349.503 163.778 353.506 171.384 356.307 179.791C369.117 221.419 345.9 265.851 304.27 278.66C285.457 284.264 266.643 283.064 249.832 275.857C263.041 293.869 283.454 306.278 307.473 308.279C351.102 311.881 389.13 279.059 392.332 235.828C395.138 201.005 375.124 169.784 344.701 156.973L344.7 156.974Z" fill="white"/>
<path d="M233.022 134.958C224.216 134.958 220.212 137.36 209.406 137.36C198.598 137.36 194.597 134.958 185.791 134.958C178.587 134.958 168.979 142.162 164.576 146.968C158.972 152.971 147.365 180.191 147.764 188.998C148.163 202.606 163.774 221.021 163.774 221.021C163.774 221.021 172.58 235.83 174.582 241.434C176.983 247.038 178.184 251.841 178.184 255.446C178.583 259.047 186.99 280.664 209.006 280.664C231.022 280.664 239.427 258.648 239.828 255.446C240.228 251.844 241.428 247.038 243.43 241.434C245.832 235.83 254.239 221.021 254.239 221.021C254.239 221.021 269.849 202.606 270.248 188.998C270.648 180.191 259.44 153.373 253.437 146.968C249.832 142.162 240.224 134.958 233.021 134.958H233.022ZM192.193 201.003C190.593 199.803 188.591 195.399 187.79 192.197C186.589 188.193 182.186 185.393 177.783 185.393C172.98 185.393 166.974 182.991 163.771 179.789C160.968 176.586 163.771 174.584 170.177 174.986C176.582 175.386 184.587 178.189 186.988 180.989C189.792 183.793 192.592 190.195 193.393 195.001C194.195 199.404 193.793 201.804 192.193 201.003ZM209.403 258.242C200.597 258.242 195.795 257.041 198.196 255.84C200.999 254.64 204.199 252.638 206.201 251.437C207.8 250.237 210.604 250.237 212.606 251.437C214.206 252.638 217.81 254.64 220.611 255.84C223.015 257.443 218.209 258.242 209.403 258.242H209.403ZM221.814 229.823C219.011 231.423 215.409 235.427 213.407 238.629C211.405 241.832 207.803 241.832 205.801 238.629C203.799 235.427 199.798 231.426 197.394 229.823C194.59 228.223 192.189 225.42 191.79 223.82C191.391 221.818 194.992 221.818 200.197 223.421C205.402 225.021 213.806 225.021 219.01 223.421C224.215 221.821 228.216 221.821 227.418 223.82C227.016 225.42 224.215 228.221 221.814 229.823ZM255.437 179.389C252.235 182.591 246.231 184.593 241.426 184.593C236.623 184.194 232.22 187.397 231.019 190.998C230.218 195.002 228.216 199.003 226.616 199.805C225.016 201.005 224.614 198.205 225.415 193.399C226.616 188.597 229.419 182.192 232.619 179.791C235.422 176.987 243.026 174.586 249.431 174.187C255.836 174.583 258.64 176.985 255.437 179.389Z" fill="white"/>
</svg>
