<svg width="756" height="633" viewBox="0 0 756 633" fill="none" xmlns="http://www.w3.org/2000/svg">
<g filter="url(#filter0_d_2_46)">
<path d="M111.919 397L126.443 432.34C126.759 433.11 127.171 433.838 127.667 434.506L140.535 451.81C141.121 452.599 141.821 453.297 142.611 453.882L165.673 470.948C166.169 471.315 166.699 471.636 167.254 471.905L207.419 491.405L70.6767 572.073C62.6797 576.791 53.1303 569.012 56.1331 560.226L79.654 491.405L111.919 397Z" fill="white"/>
<path fill-rule="evenodd" clip-rule="evenodd" d="M555.483 25.8693C500.707 3.53152 440.519 20.4535 404 63.1003C417.524 58.3596 431.728 56.3293 446.606 56.3293C494.576 56.3293 536.533 81.8439 559.987 120H418.905C411.709 100.368 399.744 82.2108 383.121 67.3185C328.54 17.7514 244.319 22.507 195.132 77.5066L195.133 77.505C182.311 91.9853 173.115 108.44 167.522 125.741C128.758 139.51 101 176.513 101 220V376C101 409.412 117.387 438.997 142.562 457.157C174.16 497.515 225.834 515.457 274.801 505.137C261.3 501.072 248.472 494.298 236.997 484.806V484.804C233.424 482.011 230.031 479.071 226.818 476H290C290.008 485.731 291.068 495.629 293.263 505.569C310.213 577.261 382.078 621.902 453.945 605.668C511.576 592.142 551.576 544.118 557 488.66C548.185 499.487 538.016 509.63 525.81 518.425L525.809 518.424C464.793 560.357 381.399 545.476 339.364 485.281C337.233 482.244 335.247 479.148 333.405 476H636C691.228 476 736 431.228 736 376V220C736 164.772 691.228 120 636 120H635.575C626.096 78.828 597.417 42.906 555.484 25.8674L555.483 25.8693ZM333.405 476C318.843 451.109 313.303 423.022 316.314 396C299.513 418.854 289.976 446.667 290 476H333.405ZM226.818 476C177.82 429.159 170.918 351.788 213.365 297.097C233.62 270.668 261.3 254.404 291 248.306C255.224 236.111 214.717 238.824 179.61 259.154C116.149 296.426 95.2224 378.419 132.354 442.118C135.459 447.43 138.874 452.446 142.562 457.157C158.999 469.014 179.184 476 201 476H226.818ZM245.659 120C219.088 135.022 197.533 159.221 186.372 190.221C180.981 204.481 178.96 218.738 178.288 233C159.726 200.153 156.069 161.172 167.522 125.741C177.989 122.024 189.258 120 201 120H245.659ZM245.659 120C278.45 101.462 318.88 96.899 356.843 110.776C363.783 113.36 370.352 116.455 376.541 120H245.659ZM376.541 120H418.905C424.834 136.176 427.525 153.353 426.916 170.53C414.889 149.978 397.994 132.287 376.541 120ZM635.575 120C641.536 145.89 639.904 173.856 629.201 200.509C613.643 238.414 583.213 264.818 547.371 277C567.66 253.306 579.83 223.526 579.83 190.356C579.83 164.59 572.572 140.475 559.987 120H635.575ZM661.489 257.538C656.742 243.339 649.955 230.493 641.814 219.001L641.815 219C693.387 240.636 727.313 293.366 722.556 352.18C717.128 425.194 652.667 480.627 578.709 474.543C537.995 471.163 503.391 450.206 481 419.785C509.497 431.957 541.389 433.984 573.279 424.52C643.849 402.887 683.204 327.844 661.489 257.538ZM453.078 182C446.019 182 440.787 182.916 435.286 183.879C429.193 184.946 422.772 186.071 413.176 186.071C403.577 186.071 397.156 184.946 391.063 183.879C385.563 182.916 380.331 182 373.272 182C361.099 182 344.864 194.212 337.424 202.358C327.955 212.534 308.343 258.678 309.017 273.607C309.692 296.677 336.069 327.893 336.069 327.893C336.069 327.893 350.949 352.998 354.332 362.498C358.39 371.997 360.418 380.139 360.418 386.25C361.093 392.356 375.298 429 412.5 429C449.701 429 463.902 391.678 464.581 386.25C465.256 380.144 467.284 371.998 470.667 362.498C474.725 352.998 488.93 327.893 488.93 327.893C488.93 327.893 515.309 296.677 515.982 273.607C516.657 258.679 497.719 213.216 487.575 202.358C481.484 194.212 465.25 182 453.078 182ZM384.09 293.959C381.386 291.924 378.004 284.46 376.65 279.031C374.621 272.243 367.181 267.496 359.74 267.496C351.626 267.496 341.477 263.425 336.065 257.997C331.328 252.568 336.065 249.174 346.888 249.855C357.711 250.532 371.237 255.284 375.296 260.032C380.032 264.784 384.764 275.637 386.118 283.784C387.472 291.248 386.793 295.318 384.09 293.959ZM413.17 390.99C398.291 390.99 390.176 388.955 394.233 386.919C398.397 385.13 403.078 382.291 406.448 380.248C406.911 379.967 407.35 379.701 407.759 379.455C410.462 377.42 415.199 377.42 418.582 379.455C421.285 381.49 427.376 384.884 432.108 386.919C436.17 389.636 428.051 390.99 413.17 390.99ZM434.142 342.815C429.405 345.527 423.319 352.315 419.936 357.743C416.553 363.172 410.467 363.172 407.084 357.743C403.701 352.314 396.94 345.532 392.878 342.815C388.141 340.103 384.084 335.351 383.409 332.639C382.734 329.245 388.82 329.245 397.615 331.962C406.409 334.674 420.61 334.674 429.404 331.962C438.198 329.25 444.959 329.25 443.61 332.639C442.931 335.351 438.199 340.098 434.142 342.815ZM490.956 257.318C485.544 262.747 475.4 266.141 467.28 266.141C459.165 265.464 451.725 270.893 449.696 276.999C448.342 283.786 444.959 290.569 442.256 291.927C439.552 293.963 438.873 289.215 440.227 281.069C442.256 272.928 446.993 262.07 452.399 258C457.136 253.247 469.983 249.177 480.807 248.5C491.629 249.172 496.367 253.243 490.956 257.318Z" fill="white"/>
</g>
<defs>
<filter id="filter0_d_2_46" x="35.5674" y="0" width="720.433" height="633" filterUnits="userSpaceOnUse" color-interpolation-filters="sRGB">
<feFlood flood-opacity="0" result="BackgroundImageFix"/>
<feColorMatrix in="SourceAlpha" type="matrix" values="0 0 0 0 0 0 0 0 0 0 0 0 0 0 0 0 0 0 127 0" result="hardAlpha"/>
<feOffset dy="4"/>
<feGaussianBlur stdDeviation="10"/>
<feComposite in2="hardAlpha" operator="out"/>
<feColorMatrix type="matrix" values="0 0 0 0 0 0 0 0 0 0 0 0 0 0 0 0 0 0 0.25 0"/>
<feBlend mode="normal" in2="BackgroundImageFix" result="effect1_dropShadow_2_46"/>
<feBlend mode="normal" in="SourceGraphic" in2="effect1_dropShadow_2_46" result="shape"/>
</filter>
</defs>
</svg>
